<svg width="82" height="80" fill="none" xmlns="http://www.w3.org/2000/svg"><path fill="#E40521" d="M2.245 0h79.753v79.753H2.245z"/><path fill="#0B4696" d="M0 0h79.753v79.753H0z"/><g clip-path="url(#clip0)" fill="#fff"><path d="M21.985 61.393h-.95a3.803 3.803 0 100 7.607h38.032a3.803 3.803 0 100-7.607h-.95V44.24c0-.032-.016-.058-.019-.09a3.785 3.785 0 00.018-7.342v-18.2h.951a3.803 3.803 0 100-7.607H21.034a3.803 3.803 0 100 7.607h.951v18.2a3.785 3.785 0 00.01 7.34c0 .018-.01.034-.01.053v17.193zm38.984 3.803a1.902 1.902 0 01-1.902 1.902H21.034a1.902 1.902 0 110-3.803h38.033c1.05 0 1.902.852 1.902 1.901zM36.827 39.085a12.372 12.372 0 01-9.137-11.92v-8.558h24.721v8.558a12.374 12.374 0 01-9.128 11.919.95.95 0 000 1.835 12.373 12.373 0 019.128 11.918v8.557h-1.95c-.516-5.75-5.596-9.993-11.346-9.477a10.453 10.453 0 00-9.477 9.477H27.69v-7.606c0-6.2 3.673-11.372 9.14-12.868a.95.95 0 000-1.835h-.003zm11.728 22.31H31.546a8.557 8.557 0 0117.009 0zm10.512-20.919a1.902 1.902 0 11-3.803 0 1.902 1.902 0 013.803 0zm-2.852-3.668a3.785 3.785 0 00.017 7.342c0 .032-.017.058-.017.09v17.154h-1.902v-8.557A14.284 14.284 0 0046.243 40a14.284 14.284 0 008.07-12.836v-8.558h1.902v18.201zM19.132 14.803c0-1.05.852-1.902 1.902-1.902h38.033a1.902 1.902 0 010 3.804H21.034a1.902 1.902 0 01-1.902-1.902zm6.656 3.803v8.558a14.284 14.284 0 008.094 12.847 15.046 15.046 0 00-8.094 13.776v7.606h-1.901V44.2c0-.02-.01-.034-.01-.053a3.786 3.786 0 00.01-7.34v-18.2h1.901zm-4.754 21.87a1.902 1.902 0 113.803 0 1.902 1.902 0 01-3.803 0z"/><path d="M50.51 27.164a.95.95 0 00-.598-.884l-5.271-2.108a12.312 12.312 0 00-9.181 0l-5.27 2.108a.951.951 0 00-.599.884c0 5.776 4.683 10.459 10.46 10.459 5.776 0 10.459-4.683 10.459-10.46zm-18.994.634l4.65-1.86a10.41 10.41 0 017.77 0l4.65 1.86a8.557 8.557 0 01-17.07 0zM39.1 48.082h1.901v1.902H39.1v-1.902zm0 7.606h1.901v1.902H39.1v-1.902zm-3.803 1.902h1.901v1.902h-1.901V57.59zm7.606 0h1.902v1.902h-1.902V57.59zM39.1 44.278h1.901v1.902H39.1v-1.902zm0-3.803h1.901v1.902H39.1v-1.902z"/></g><defs><clipPath id="clip0"><path fill="#fff" transform="translate(11 11)" d="M0 0h58v58H0z"/></clipPath></defs></svg>