<svg width="82" height="80" fill="none" xmlns="http://www.w3.org/2000/svg"><path fill="#E40521" d="M2.247 0H82v79.753H2.247z"/><path fill="#0B4696" d="M0 0h79.753v79.753H0z"/><g clip-path="url(#clip0)"><path d="M39.966 11.003c-1.04 0-2.079.056-3.112.167a27.377 27.377 0 00-3.343.566 29.002 29.002 0 00-15.37 9.158c-10.532 12.091-9.268 30.43 2.823 40.963 11.575 10.082 29 9.412 39.766-1.531A28.985 28.985 0 0069 40.036c0-16.035-13-29.033-29.034-29.033zm-19.47 10.195c.152-.159.31-.31.467-.464.18-.178.359-.356.543-.527.161-.15.328-.296.493-.443.187-.166.373-.331.564-.49.169-.143.342-.28.514-.417.194-.155.387-.31.587-.459.176-.132.355-.26.535-.387.2-.143.401-.29.606-.424a26.067 26.067 0 011.75-1.083 30.017 30.017 0 011.226-.66 28.453 28.453 0 011.26-.595l.689-.29c.2-.082.4-.163.602-.24.234-.09.471-.172.708-.256.202-.07.405-.14.61-.208.24-.077.484-.149.728-.22.204-.058.406-.12.611-.175.079-.02.157-.036.235-.057a24.013 24.013 0 00-6.185 10.044 32.507 32.507 0 01-6.63-2.552c.031-.034.058-.068.086-.097zm-1.392 1.558a33.63 33.63 0 007.344 2.923 50.216 50.216 0 00-1.954 13.39H12.89a27.039 27.039 0 016.213-16.313zm0 34.56a27.043 27.043 0 01-6.214-16.312h11.604c.044 4.53.702 9.035 1.954 13.39a33.643 33.643 0 00-7.345 2.922zm13.88 8.9c-.196-.05-.398-.114-.6-.173-.245-.071-.49-.143-.732-.221-.204-.066-.406-.137-.607-.207a23.071 23.071 0 01-1.31-.495l-.692-.29a25.155 25.155 0 01-.59-.27 41.47 41.47 0 01-.677-.326 26.776 26.776 0 01-2.428-1.384 25.402 25.402 0 01-.55-.359c-.205-.139-.41-.284-.612-.43a24.796 24.796 0 01-1.12-.85 25.473 25.473 0 01-.51-.412c-.193-.16-.38-.328-.568-.495-.164-.146-.33-.29-.49-.44-.185-.171-.364-.35-.544-.527-.156-.154-.315-.306-.468-.464l-.083-.09a32.487 32.487 0 016.632-2.553 24.018 24.018 0 006.185 10.044c-.079-.02-.158-.037-.237-.058zm6.014.841c-4.14-.588-7.771-4.91-10.055-11.293a49.176 49.176 0 0110.055-1.183v12.476zm0-14.412c-3.59.047-7.163.474-10.663 1.272a48.415 48.415 0 01-1.905-12.913h12.568v11.641zm0-13.577H26.43c.049-4.37.69-8.714 1.905-12.913a50.98 50.98 0 0010.663 1.272v11.641zm0-13.577a49.127 49.127 0 01-10.055-1.183c2.284-6.383 5.914-10.705 10.055-11.293V25.49zm21.83-2.735a27.043 27.043 0 016.214 16.312H55.438a50.216 50.216 0 00-1.954-13.389 33.663 33.663 0 007.344-2.923zm-13.887-8.9c.203.05.405.114.607.173.244.071.49.143.732.221.204.066.406.137.607.207a23.166 23.166 0 011.31.495l.692.29a34.678 34.678 0 011.267.597 26.782 26.782 0 012.428 1.384c.184.117.368.236.55.358.205.139.408.283.61.428a22.267 22.267 0 011.122.85c.17.135.342.271.51.412.193.16.38.328.568.495.164.146.33.29.49.44.185.172.364.35.544.528.156.153.315.305.468.463l.083.09a32.486 32.486 0 01-6.632 2.553 24.02 24.02 0 00-6.192-10.043c.078.02.157.037.236.059zm-6.007-.841c4.14.588 7.771 4.91 10.055 11.293a49.177 49.177 0 01-10.055 1.183V13.015zm0 14.412a50.965 50.965 0 0010.663-1.272 48.411 48.411 0 011.905 12.913H40.934V27.427zm0 13.577h12.568a48.412 48.412 0 01-1.905 12.913 50.978 50.978 0 00-10.663-1.272V41.004zm0 26.053V54.581a49.17 49.17 0 0110.055 1.183c-2.284 6.383-5.914 10.705-10.055 11.293zm18.503-8.183c-.153.158-.31.31-.467.463-.18.178-.36.357-.544.529-.161.15-.327.29-.491.44-.188.167-.375.333-.566.494-.17.141-.342.278-.514.415-.194.155-.387.31-.587.459a20.17 20.17 0 01-.535.387c-.2.143-.401.29-.606.424a24.994 24.994 0 01-1.18.749c-.193.113-.378.223-.569.333a29.337 29.337 0 01-1.227.66 28.072 28.072 0 01-1.26.595l-.689.29c-.2.082-.4.163-.6.24-.237.09-.474.173-.712.256-.201.07-.403.141-.607.207-.242.078-.484.15-.73.22-.203.06-.406.12-.61.176-.079.02-.157.036-.235.057a24.013 24.013 0 006.185-10.044 32.505 32.505 0 016.63 2.552c-.031.035-.058.069-.086.098zm1.392-1.558a33.624 33.624 0 00-7.345-2.923 50.222 50.222 0 001.954-13.39h11.604a27.039 27.039 0 01-6.214 16.313z" fill="#fff"/></g><defs><clipPath id="clip0"><path fill="#fff" transform="translate(11 11)" d="M0 0h58v58H0z"/></clipPath></defs></svg>