<svg width="82" height="80" fill="none" xmlns="http://www.w3.org/2000/svg"><path fill="#E40521" d="M2.247 0H82v79.753H2.247z"/><path fill="#0B4696" d="M0 0h79.753v79.753H0z"/><g clip-path="url(#clip0)" fill="#fff" stroke="#fff" stroke-width=".2"><path d="M67.148 21.238h0a.95.95 0 01.652.792l1.292 10.832a.95.95 0 01-.216.725l-2.783 3.3 1.055-15.649zm0 0a.95.95 0 00-.99.262h0m.99-.262l-.99.262m0 0l-5.826 6.345-30.987 1.132h0M66.157 21.5l-36.812 7.477m0 0h-.006m.006 0h-.006m0 0a.95.95 0 00-.85 1.041h0m.85-1.04l-.85 1.04m0 0a.95.95 0 001.039.85L60.875 29.7h0m-32.385.317l32.385-.317m0 0h.006m-.006 0h.006m0 0a.949.949 0 00.603-.303l4.675-5.091.998 8.371-2.431 2.884-4.984 3.362h0m1.14-9.223l-1.14 9.223m0 0a.95.95 0 00-.416.852l.388 5.72.1-.006m-.072-6.566l.072 6.566m0 0l-.1.006a.95.95 0 00.857.881l3.497.333 1.786 4.549L65.1 53.2l-2.32-3.096-.08.06.08-.06a.95.95 0 00-.908-.369h0m-2.058-4.246l2.058 4.246m0 0l-3.688.583a.95.95 0 00-.743.61h0m4.431-1.193l-4.431 1.192m0 0l-1.176 3.192-6.843 1.387a.95.95 0 10.378 1.861l7.362-1.492-.02-.098m.299-4.85l-.3 4.85m0 0l.02.098a.95.95 0 00.703-.603l1.167-3.166 2.572-.406 3.004 4.008.08-.06-.08.06a.95.95 0 001.645-.226l1.507-3.883a.949.949 0 00-.002-.69l-2.135-5.437a.95.95 0 00-.794-.598l-3.274-.312-.296-4.37 4.64-3.13a.938.938 0 00.195-.176l-8.951 18.89zm-28.744-7.643h0l2.142 2.636 4.805-1.21a.949.949 0 01.92.265l6.67 6.997 2.761-.56s0 0 0 0a.949.949 0 11.377 1.862l-3.276.664h0a.95.95 0 01-.876-.275l-6.65-6.977-4.854 1.224s0 0 0 0a.95.95 0 01-.97-.322l-2.272-2.798-6.718-.64v1.092a.95.95 0 01-.27.664s0 0 0 0l-4.558 4.659h0a.95.95 0 01-.937.25h0a.95.95 0 01-.668-.703l-1.46-6.407a.95.95 0 01.038-.549l1.106-2.907-2.154-.706.031-.095-.03.095a.95.95 0 01-.627-1.128l3.128-12.782h0a.95.95 0 01.427-.584h0l6.082-3.72h0a.95.95 0 01.896-.052h0l4.99 2.322a.95.95 0 11-.8 1.722s0 0 0 0l-4.53-2.107-5.313 3.25-2.826 11.548 2.264.743a.949.949 0 01.592 1.24h0l-1.359 3.568 1.01 4.429 3.069-3.138v-1.748a.95.95 0 01.31-.703l9.53.88zm0 0a.95.95 0 00-.647-.347h0l-8.154-.776 8.8 1.123z"/></g><defs><clipPath id="clip0"><path fill="#fff" transform="translate(11 11)" d="M0 0h58v58H0z"/></clipPath></defs></svg>