<svg width="82" height="80" fill="none" xmlns="http://www.w3.org/2000/svg"><path fill="#E40521" d="M2.247 0H82v79.753H2.247z"/><path fill="#0B4696" d="M0 0h79.753v79.753H0z"/><path d="M68.082 48.937l-2.686-1.13-.997-2.405 1.102-2.706a.966.966 0 00-.212-1.048l-3.15-3.15a.967.967 0 00-1.048-.211l-2.706 1.102-2.405-.997-1.13-2.686a.967.967 0 00-.89-.592h-4.456a.965.965 0 00-.89.593l-1.132 2.685-2.404.997-2.706-1.102a.966.966 0 00-1.048.212l-3.15 3.15a.966.966 0 00-.212 1.048l1.102 2.706-.997 2.404-2.685 1.131a.967.967 0 00-.593.892v4.454c0 .389.233.74.592.891l2.686 1.131.997 2.405-1.102 2.707a.966.966 0 00.211 1.047l3.152 3.15a.967.967 0 001.048.211l2.706-1.1 2.404.995 1.131 2.687a.966.966 0 00.891.592h4.455c.388 0 .74-.233.89-.59l1.132-2.688 2.405-.997 2.706 1.102a.967.967 0 001.046-.212l3.151-3.151a.966.966 0 00.212-1.048l-1.1-2.707.995-2.405 2.687-1.13a.966.966 0 00.59-.891v-4.454c0-.39-.233-.74-.592-.892zm-1.342 4.704l-2.46 1.037a.967.967 0 00-.519.521l-1.3 3.14a.966.966 0 000 .733l1.006 2.483-2.236 2.238-2.48-1.01a.973.973 0 00-.733 0l-3.14 1.302a.967.967 0 00-.52.517l-1.041 2.463h-3.17l-1.036-2.461a.967.967 0 00-.521-.519l-3.14-1.3a.967.967 0 00-.733 0l-2.48 1.009-2.241-2.24 1.009-2.479a.96.96 0 000-.733l-1.301-3.139a.967.967 0 00-.517-.52l-2.462-1.038v-3.17l2.46-1.036a.967.967 0 00.519-.521l1.3-3.139a.968.968 0 000-.734l-1.008-2.48 2.241-2.241 2.48 1.009c.235.098.5.098.734 0l3.139-1.301a.967.967 0 00.521-.518l1.035-2.46h3.17l1.038 2.46c.099.235.286.42.521.518l3.139 1.3a.956.956 0 00.733 0l2.484-1.012 2.241 2.242-1.009 2.479a.966.966 0 000 .735l1.301 3.138a.967.967 0 00.518.521l2.458 1.035v3.171z" fill="#fff"/><path d="M51.733 42.39c-5.338 0-9.666 4.328-9.666 9.667 0 5.338 4.328 9.666 9.666 9.666 5.34 0 9.667-4.328 9.667-9.666a9.677 9.677 0 00-9.666-9.666zm0 17.4a7.733 7.733 0 117.734-7.733 7.742 7.742 0 01-7.733 7.733z" fill="#fff"/><path d="M52.7 51.09h-1.933v1.933H52.7V51.09zm-3.866 0H46.9v1.933h1.934V51.09zm7.728 0H54.63v1.933h1.933V51.09zm-4.844-29.272l-2.554-1.316-.446-1.077.876-2.74a.966.966 0 00-.237-.977l-1.822-1.823a.966.966 0 00-.978-.236l-2.74.875-1.077-.446-1.315-2.554a.967.967 0 00-.86-.524h-2.578a.967.967 0 00-.86.524l-1.318 2.554-1.075.446-2.737-.875a.966.966 0 00-.978.236l-1.823 1.822a.967.967 0 00-.237.978l.875 2.74-.447 1.077-2.553 1.316a.967.967 0 00-.524.859v2.578c0 .362.202.694.524.86l2.553 1.318.447 1.076-.875 2.74a.966.966 0 00.237.977l1.822 1.823a.966.966 0 00.977.237l2.74-.875 1.074.444 1.316 2.553a.967.967 0 00.86.524h2.58a.967.967 0 00.86-.524l1.315-2.553 1.077-.447 2.74.875c.345.11.722.02.978-.236l1.822-1.823a.966.966 0 00.237-.977l-.876-2.74.446-1.074 2.554-1.316a.967.967 0 00.524-.862v-2.578a.967.967 0 00-.524-.86zm-1.41 2.848l-2.344 1.209a.967.967 0 00-.45.489l-.717 1.73a.96.96 0 00-.027.663l.803 2.513-.99.996-2.513-.803a.967.967 0 00-.664.027l-1.73.717a.966.966 0 00-.488.45l-1.209 2.345h-1.403l-1.208-2.35a.96.96 0 00-.49-.449l-1.73-.717a.96.96 0 00-.663-.027l-2.513.803-.996-.989.803-2.513a.967.967 0 00-.026-.664l-.718-1.73a.96.96 0 00-.45-.49l-2.344-1.208v-1.402l2.345-1.209a.966.966 0 00.45-.488l.716-1.73a.967.967 0 00.027-.664l-.803-2.516.993-.99 2.513.803a.96.96 0 00.664-.027l1.73-.716a.966.966 0 00.49-.45l1.21-2.346h1.4l1.209 2.345a.966.966 0 00.488.45l1.73.717a.958.958 0 00.664.027l2.514-.803.992.99-.803 2.513a.967.967 0 00.027.664l.716 1.73a.969.969 0 00.45.488l2.346 1.212v1.4zM34.319 43.755l-2.52-1.299-.3-.723.863-2.706a.967.967 0 00-.238-.979l-1.45-1.45a.967.967 0 00-.978-.236l-2.706.864-.724-.3-1.3-2.521a.967.967 0 00-.859-.524h-2.049a.967.967 0 00-.858.524l-1.3 2.521-.723.3-2.7-.864a.967.967 0 00-.98.237l-1.45 1.45a.967.967 0 00-.24.983l.864 2.707-.3.723-2.52 1.293a.967.967 0 00-.525.859v2.055c0 .362.203.693.524.859l2.521 1.296.3.724-.864 2.707a.967.967 0 00.237.978l1.45 1.45a.967.967 0 00.983.235l2.706-.864.723.3 1.3 2.52a.967.967 0 00.858.524h2.05a.967.967 0 00.858-.524l1.3-2.52.724-.3 2.706.864c.345.11.722.019.978-.237l1.45-1.45a.967.967 0 00.238-.978l-.864-2.707.3-.724 2.52-1.299a.966.966 0 00.519-.854v-2.055a.967.967 0 00-.524-.859zm-1.41 2.322l-2.312 1.192a.955.955 0 00-.45.49l-.57 1.376a.966.966 0 00-.028.665l.793 2.479-.619.619-2.479-.793a.955.955 0 00-.665.028l-1.377.57a.956.956 0 00-.489.45l-1.192 2.312h-.87l-1.191-2.312a.955.955 0 00-.49-.45l-1.377-.57a.952.952 0 00-.664-.028l-2.48.793-.618-.619.793-2.48a.967.967 0 00-.027-.665l-.572-1.377a.966.966 0 00-.45-.488l-2.315-1.192v-.87l2.31-1.192a.967.967 0 00.451-.488l.572-1.377a.96.96 0 00.027-.665l-.793-2.48.619-.618 2.48.792a.96.96 0 00.664-.027l1.378-.571a.966.966 0 00.483-.45l1.192-2.312h.87l1.192 2.311a.966.966 0 00.483.45l1.376.572a.967.967 0 00.666.027l2.48-.792.618.618-.792 2.48a.966.966 0 00.028.664l.57 1.377a.956.956 0 00.45.49l2.325 1.187v.874z" fill="#fff"/><path d="M39.276 17.199a6.766 6.766 0 106.767 6.766 6.775 6.775 0 00-6.767-6.766zm0 11.6a4.833 4.833 0 114.833-4.834 4.84 4.84 0 01-4.833 4.834z" fill="#fff"/><path d="M38.31 22.999h-1.934v1.933h1.934v-1.933zm3.866 0h-1.933v1.933h1.933v-1.933zM23.084 40.807a4.833 4.833 0 104.833 4.833 4.839 4.839 0 00-4.833-4.833zm0 7.733a2.9 2.9 0 110-5.8 2.9 2.9 0 010 5.8z" fill="#fff"/><path d="M24.05 44.674h-1.933v1.933h1.934v-1.933zm31.736-22.687l-1.29 1.44A22.286 22.286 0 0161.6 36.292l1.906-.32a24.219 24.219 0 00-7.72-13.985zm-32.096-.112a24.142 24.142 0 00-7.174 11.2l1.852.553a22.205 22.205 0 016.602-10.303l-1.28-1.45zm3.692 36.652l-1.07 1.61a23.947 23.947 0 008.33 3.503l.4-1.892a22.033 22.033 0 01-7.66-3.221z" fill="#fff"/></svg>