<svg width="82" height="80" fill="none" xmlns="http://www.w3.org/2000/svg"><path fill="#E40521" d="M2.247 0H82v79.753H2.247z"/><path fill="#0B4696" d="M0 0h79.753v79.753H0z"/><g clip-path="url(#clip0)" fill="#fff"><path d="M67.017 14.957H12.982c-1.093 0-1.982.89-1.982 1.983v6.977c0 1.099 1.699 1.099 1.699 0V16.94c0-.156.127-.283.283-.283h54.035c.157 0 .284.127.284.283v41.43a.284.284 0 01-.284.283H56.13v-1.767h8.545c.47 0 .85-.38.85-.85V47.14c0-1.098-1.7-1.098-1.7 0v8.047H56.13v-3.77l.081.008c.706.062 1.583.139 2.19-.47.608-.608.53-1.486.47-2.192-.067-.757.004-.965.586-1.448 1.499-1.246 1.527-2.58 0-3.85-.582-.484-.653-.69-.587-1.448.166-1.9-.721-2.832-2.659-2.662-.756.067-.961-.005-1.443-.587-1.244-1.503-2.58-1.53-3.847 0-.482.582-.687.654-1.443.587-1.902-.167-2.829.726-2.659 2.662.066.757-.005.964-.587 1.448-1.499 1.246-1.526 2.58 0 3.85.582.484.653.691.587 1.448-.178 2.036.794 2.823 2.74 2.655v3.77H16.174V20.124h47.651v22.485c0 1.098 1.7 1.098 1.7 0V19.274a.85.85 0 00-.85-.85h-49.35a.85.85 0 00-.85.85v36.763c0 .47.38.85.85.85h34.234v1.767H12.982a.284.284 0 01-.283-.283V28.222c0-1.098-1.7-1.098-1.7 0v30.15c0 1.092.89 1.982 1.983 1.982H49.56V64.2c.121.698.524.955 1.208.77l2.077-.966 2.078.966c.514.239 1.208-.139 1.208-.77v-3.846h10.887c1.093 0 1.983-.89 1.983-1.983V16.94c0-1.093-.89-1.983-1.983-1.983zM49.33 49.733c-.85.075-.892.03-.817-.82.114-1.305-.186-2.067-1.194-2.904-.69-.574-.69-.663 0-1.236 1.008-.838 1.308-1.6 1.194-2.904-.075-.85-.034-.895.817-.82 1.305.114 2.065-.188 2.9-1.197.572-.689.66-.689 1.23 0 .836 1.01 1.596 1.311 2.9 1.197.852-.075.893-.03.818.82-.114 1.305.186 2.066 1.194 2.904.69.573.69.663 0 1.236-1.008.837-1.308 1.598-1.194 2.903.075.85.033.896-.817.821-.534-.047-1.14-.1-1.672.121-.516.215-.878.652-1.229 1.075-.165.2-.467.564-.615.629-.148-.065-.45-.43-.614-.629-.351-.423-.713-.86-1.23-1.075a3.721 3.721 0 00-1.671-.121zm3.874 12.565a.85.85 0 00-.717 0l-1.227.57v-10.46c.403.442.9.854 1.585.854.686 0 1.183-.412 1.586-.855v10.462l-1.227-.572z"/><path d="M22.017 27.236h29.289c1.098 0 1.098-1.7 0-1.7H22.017c-1.098 0-1.098 1.7 0 1.7zm36.814 4.318a.85.85 0 00-.85-.85H22.019c-1.099 0-1.099 1.7 0 1.7h35.964a.85.85 0 00.85-.85zM43.3 36.72a.85.85 0 00-.849-.849H22.018c-1.099 0-1.099 1.7 0 1.7h20.433c.47 0 .85-.38.85-.85zM32.144 48.564l-1.39.001c-.89.001-1.381-.236-1.563-1.181-.166-.863-1.41-.753-1.639 0-.1.333-.61 1.287-1.056 1.21-.236-.042-.339-.406-.426-.595a7.243 7.243 0 01-.4-1.145c-.447-1.646-.536-3.365-.816-5.043-.162-.973-1.645-.698-1.669.226-.076 2.942-.557 5.844-1.604 8.601-.389 1.023 1.253 1.466 1.638.452a23.88 23.88 0 00.973-3.257c.134.403.293.797.487 1.182.497.98 1.509 1.56 2.591 1.124.387-.155.74-.428 1.04-.759.803.927 1.999.885 3.115.884 1.682-.002 3.363-.006 5.046-.01 1.093-.004 1.095-1.703 0-1.7l-4.327.01zm20.701.144a3.322 3.322 0 003.318-3.318 3.322 3.322 0 00-3.318-3.319 3.322 3.322 0 00-3.319 3.319 3.322 3.322 0 003.319 3.318zm0-4.938c.893 0 1.62.727 1.62 1.62 0 .892-.727 1.619-1.62 1.619-.893 0-1.62-.726-1.62-1.62 0-.892.727-1.619 1.62-1.619z"/></g><defs><clipPath id="clip0"><path fill="#fff" transform="translate(11 11)" d="M0 0h58v58H0z"/></clipPath></defs></svg>