<svg width="12" height="12" fill="none" xmlns="http://www.w3.org/2000/svg"><g opacity=".5" clip-path="url(#clip0)"><path d="M8.014 1.373a4.701 4.701 0 00-6.64 0 4.703 4.703 0 000 6.641 4.701 4.701 0 005.998.532.989.989 0 00.269.498l2.665 2.666a.991.991 0 101.403-1.403L9.043 7.64a.992.992 0 00-.497-.267 4.7 4.7 0 00-.532-6zm-.841 5.8a3.51 3.51 0 01-4.958 0 3.51 3.51 0 010-4.958 3.51 3.51 0 014.958 0 3.51 3.51 0 010 4.958z" fill="#fff"/></g><defs><clipPath id="clip0"><path fill="#fff" d="M0 0h12v12H0z"/></clipPath></defs></svg>