<svg width="54" height="54" fill="none" xmlns="http://www.w3.org/2000/svg"><path fill="#0B4696" d="M0 0h54v54H0z"/><g clip-path="url(#clip0)" fill="#fff"><path d="M9.867 38.277l1.622 2.81a1.39 1.39 0 001.896.507l1.481-.855a10.035 10.035 0 003.747 2.165v1.708A1.39 1.39 0 0020 46h3.244a1.39 1.39 0 001.388-1.388v-1.708a10.036 10.036 0 003.747-2.165l1.48.855a1.39 1.39 0 001.897-.508l1.622-2.81a1.39 1.39 0 00-.508-1.895l-1.48-.855a10.064 10.064 0 000-4.327l1.48-.854a1.387 1.387 0 00.508-1.896l-1.622-2.81a1.387 1.387 0 00-1.896-.508l-1.481.855a10.036 10.036 0 00-3.747-2.165v-1.708a1.39 1.39 0 00-1.388-1.387H20a1.39 1.39 0 00-1.387 1.387v1.709a10.037 10.037 0 00-3.747 2.165l-1.48-.855a1.387 1.387 0 00-1.897.507l-1.622 2.81a1.39 1.39 0 00.508 1.896l1.48.854a10.064 10.064 0 000 4.327l-1.48.855a1.39 1.39 0 00-.508 1.896zm1.065-.932l1.697-.98a.779.779 0 00.364-.858 8.944 8.944 0 010-4.288.78.78 0 00-.363-.858l-1.698-.98a.275.275 0 01-.1-.375l1.621-2.81a.275.275 0 01.376-.1l1.699.98a.779.779 0 00.925-.114 8.913 8.913 0 013.71-2.144.779.779 0 00.563-.744v-1.96c0-.152.123-.275.274-.275h3.244c.152 0 .275.123.275.274v1.96c0 .344.231.65.562.745a8.912 8.912 0 013.71 2.144c.248.24.629.286.926.115l1.7-.981a.275.275 0 01.375.1l1.621 2.81c.076.13.031.3-.1.375l-1.698.98a.779.779 0 00-.363.858 8.944 8.944 0 010 4.288.779.779 0 00.363.858l1.698.98a.275.275 0 01.1.375l-1.621 2.81a.275.275 0 01-.376.1l-1.699-.98a.779.779 0 00-.925.114 8.912 8.912 0 01-3.71 2.144.779.779 0 00-.563.744v1.96a.275.275 0 01-.274.275H20a.275.275 0 01-.274-.275v-1.96a.778.778 0 00-.562-.744 8.912 8.912 0 01-3.71-2.145.779.779 0 00-.926-.114l-1.7.981a.275.275 0 01-.374-.1l-1.623-2.81a.275.275 0 01.101-.375zM25.937 11.67l-.739-1.28a.937.937 0 00-1.278-.342l-.487.281a4.884 4.884 0 00-1.44-.832v-.561A.937.937 0 0021.058 8h-1.479a.937.937 0 00-.935.935v.562a4.881 4.881 0 00-1.44.832l-.487-.28a.935.935 0 00-1.278.341l-.74 1.28a.936.936 0 00.343 1.278l.487.281a4.899 4.899 0 000 1.664l-.487.28a.935.935 0 00-.342 1.278l.739 1.28c.258.447.831.6 1.278.343l.487-.281c.428.357.917.64 1.44.832v.562c0 .515.42.935.935.935h1.479c.515 0 .935-.42.935-.935v-.562a4.885 4.885 0 001.44-.832l.487.281a.937.937 0 001.278-.342l.739-1.28a.936.936 0 00-.342-1.278l-.487-.281a4.891 4.891 0 000-1.664l.487-.28a.938.938 0 00.342-1.278zm-1.98 1.487a3.77 3.77 0 01-.001 1.809.66.66 0 00.309.725l.619.358-.561.972-.62-.358a.66.66 0 00-.784.096c-.44.424-.98.736-1.564.904a.66.66 0 00-.475.63v.716h-1.123v-.715a.66.66 0 00-.475-.63 3.756 3.756 0 01-1.564-.905.66.66 0 00-.784-.096l-.62.358-.561-.972.62-.358a.66.66 0 00.308-.726 3.771 3.771 0 010-1.808.66.66 0 00-.309-.726l-.619-.358.561-.972.62.358a.66.66 0 00.784-.096c.44-.424.98-.736 1.564-.904a.66.66 0 00.475-.63v-.716h1.123v.716c0 .29.195.55.475.63.584.168 1.125.48 1.564.904a.66.66 0 00.784.096l.62-.358.561.972-.62.358a.66.66 0 00-.308.726z"/><path d="M20.318 11.342c-1.5 0-2.72 1.22-2.72 2.72a2.723 2.723 0 002.72 2.719c1.5 0 2.72-1.22 2.72-2.72 0-1.5-1.22-2.72-2.72-2.72zm0 4.325a1.607 1.607 0 010-3.212 1.607 1.607 0 010 3.212zm-2.631 17.696a3.94 3.94 0 003.935 3.935 3.94 3.94 0 003.936-3.935 3.94 3.94 0 00-3.936-3.936 3.94 3.94 0 00-3.935 3.936zm3.935-2.822a2.825 2.825 0 012.822 2.822 2.825 2.825 0 01-2.822 2.822 2.825 2.825 0 01-2.822-2.822 2.825 2.825 0 012.822-2.822z"/><path d="M21.622 39.495a6.14 6.14 0 006.132-6.132 6.11 6.11 0 00-4.704-5.964.556.556 0 10-.258 1.083 5 5 0 013.849 4.88 5.025 5.025 0 01-5.019 5.02 5.025 5.025 0 01-5.019-5.02 5 5 0 013.85-4.88.557.557 0 10-.259-1.083 6.11 6.11 0 00-4.704 5.964 6.14 6.14 0 006.132 6.132zm19.766-27.359l-.988.57a7.489 7.489 0 00-2.607-1.506v-1.14c0-.641-.522-1.164-1.164-1.164h-2.371c-.642 0-1.164.523-1.164 1.164v1.14a7.49 7.49 0 00-2.608 1.506l-.987-.57a1.163 1.163 0 00-1.59.426l-1.186 2.053c-.32.556-.13 1.27.426 1.59l.987.57a7.494 7.494 0 000 3.012l-.987.57a1.165 1.165 0 00-.426 1.59L27.91 24a1.163 1.163 0 001.59.426l.988-.57a7.488 7.488 0 002.607 1.507v1.139c0 .642.522 1.164 1.164 1.164h2.37c.642 0 1.165-.522 1.165-1.164v-1.14a7.488 7.488 0 002.607-1.506l.988.57c.556.321 1.27.13 1.59-.426l1.186-2.053c.32-.556.13-1.27-.427-1.59l-.987-.57.02-.102a.557.557 0 10-1.093-.21c-.023.12-.047.23-.073.337a.72.72 0 00.336.793l1.24.716a.05.05 0 01.02.07l-1.186 2.053a.05.05 0 01-.07.018l-1.24-.717a.72.72 0 00-.857.106 6.362 6.362 0 01-2.648 1.53.72.72 0 00-.52.688v1.433a.05.05 0 01-.05.05h-2.371a.05.05 0 01-.05-.05v-1.433a.72.72 0 00-.52-.688 6.364 6.364 0 01-2.649-1.53.72.72 0 00-.855-.106l-1.242.717a.049.049 0 01-.038.005.05.05 0 01-.031-.024l-1.186-2.053a.051.051 0 01.019-.07l1.24-.715a.72.72 0 00.337-.793 6.37 6.37 0 010-3.061.72.72 0 00-.337-.794l-1.24-.716a.051.051 0 01-.019-.07l1.186-2.052a.049.049 0 01.03-.024.05.05 0 01.039.005l1.242.717a.72.72 0 00.855-.105 6.363 6.363 0 012.649-1.531.72.72 0 00.52-.688V10.06a.05.05 0 01.05-.05h2.37a.05.05 0 01.051.05v1.433c0 .317.214.6.52.688a6.363 6.363 0 012.649 1.53.72.72 0 00.855.106l1.242-.717a.051.051 0 01.069.019l1.185 2.053a.049.049 0 01.005.038.05.05 0 01-.023.031l-1.241.717a.72.72 0 00-.336.793c.026.106.05.216.073.336a.556.556 0 101.093-.21 10.41 10.41 0 00-.02-.102l.987-.57a1.163 1.163 0 00.426-1.59l-1.185-2.053a1.165 1.165 0 00-1.59-.426z"/><path d="M35.443 13.65a4.636 4.636 0 00-4.631 4.631 4.636 4.636 0 004.631 4.631 4.636 4.636 0 004.631-4.63 4.636 4.636 0 00-4.63-4.632zm0 8.149a3.522 3.522 0 01-3.518-3.518 3.522 3.522 0 013.518-3.518 3.522 3.522 0 013.518 3.518 3.522 3.522 0 01-3.518 3.518z"/></g><defs><clipPath id="clip0"><path fill="#fff" transform="translate(8 8)" d="M0 0h38v38H0z"/></clipPath></defs></svg>