<svg width="54" height="54" fill="none" xmlns="http://www.w3.org/2000/svg"><path fill="#0B4696" d="M0 0h54v54H0z"/><path d="M13.074 39.372h.97v.508h-.97v1.128h.97v1.207h1.308v-1.207h1.31v-1.129h-1.31v-.507h.598c1.805 0 2.877-.903 2.877-2.482 0-1.602-1.083-2.46-2.877-2.46h-1.906v3.814h-.97v1.128zm2.278-1.128V35.57h.474c1.196 0 1.692.474 1.692 1.32 0 .891-.496 1.354-1.692 1.354h-.474zm12.241-10.541v-4.265a.594.594 0 00-1.187 0v4.265a1.781 1.781 0 101.187 0zM27 29.969a.594.594 0 110-1.19.594.594 0 010 1.19z" fill="#fff"/><path d="M44.812 19.875a6.531 6.531 0 00-12.575-2.464c-.73-.326-1.49-.58-2.269-.76v-2.12a.594.594 0 00-.593-.594h-.594V12.75h1.781a.594.594 0 00.594-.594V10.97a1.787 1.787 0 00-1.781-1.781h-4.75a1.787 1.787 0 00-1.782 1.78v1.188a.594.594 0 00.594.594h1.781v1.188h-.593a.594.594 0 00-.594.593v2.126a13.004 13.004 0 00-3.925 1.627l-.665-.665a1.781 1.781 0 00-2.517 0l-1.68 1.68a1.781 1.781 0 000 2.518l.664.665a13.012 13.012 0 00-1.716 9.452 6.53 6.53 0 107.345 9.304 12.84 12.84 0 005.463 1.2 13.037 13.037 0 0012.676-16.186 6.538 6.538 0 005.136-6.377zm-20.781-8.313v-.593a.594.594 0 01.594-.594h4.75a.594.594 0 01.593.594v.594h-5.937zm3.562 1.188v1.188h-1.187V12.75h1.187zm-2.375 2.375h3.563v1.312A13.66 13.66 0 0027 16.312a13.52 13.52 0 00-1.782.125v-1.312zm-9.131 5.011l1.674-1.674a.594.594 0 01.843 0l.51.51a12.962 12.962 0 00-2.517 2.518l-.51-.51a.598.598 0 010-.844zM27 17.5a11.688 11.688 0 014.886 1.057c-.086.412-.13.832-.13 1.253a10.678 10.678 0 00-15.159 12.005 7.118 7.118 0 00-.879-.065c-.118 0-.231.012-.344.018A11.85 11.85 0 0127 17.5zM15.718 43.625a5.344 5.344 0 115.344-5.344 5.352 5.352 0 01-5.344 5.344zm2.197-11.483a9.599 9.599 0 01-.392-2.173h1.164a.593.593 0 100-1.188H17.53a9.456 9.456 0 01.974-3.628l1.003.582a.593.593 0 00.868-.67.598.598 0 00-.274-.363l-1.01-.582a9.57 9.57 0 012.655-2.654l.582 1.01a.59.59 0 00.813.213.594.594 0 00.22-.807l-.582-1.004a9.456 9.456 0 013.628-.973v1.157a.593.593 0 101.187 0v-1.17a9.46 9.46 0 013.628.98l-.582 1.01a.593.593 0 00.22.807.59.59 0 00.813-.213l.386-.671c.112.376.257.742.434 1.092l-1.306 3.913a.607.607 0 00.154.623.594.594 0 00.63.12l3.894-1.556c.344.891.549 1.83.606 2.784h-1.158a.593.593 0 100 1.188h1.158a9.456 9.456 0 01-.974 3.628l-1.003-.582a.596.596 0 00-.594 1.033l1.01.582a9.572 9.572 0 01-2.655 2.654l-.582-1.01a.596.596 0 00-1.033.594l.582 1.004a9.456 9.456 0 01-3.628.973v-1.157a.593.593 0 10-1.187 0v1.163a9.395 9.395 0 01-3.628-.974l.582-1.009a.596.596 0 00-1.033-.594l-.267.47a6.537 6.537 0 00-4.145-4.602zM27 41.25a11.736 11.736 0 01-5.023-1.116c.12-.395.201-.8.243-1.212a10.673 10.673 0 0015.016-12.605c.345.057.695.087 1.045.09.071 0 .136-.007.208-.013a11.855 11.855 0 01-11.49 14.856zm11.28-16.031a5.22 5.22 0 01-2.107-.44.608.608 0 00-.457-.006l-2.999 1.2.986-2.945a.608.608 0 00-.047-.487 5.34 5.34 0 114.625 2.678z" fill="#fff"/><path d="M35.906 16.906h-.593a.593.593 0 100 1.188h.593a.594.594 0 000-1.188zm5.344 0h-3.563a.593.593 0 100 1.188h3.563a.593.593 0 100-1.188zm-5.344 2.375h-.593a.593.593 0 100 1.188h.593a.594.594 0 000-1.188zm5.344 0h-3.563a.593.593 0 100 1.188h3.563a.593.593 0 100-1.188zm-5.344 2.375h-.593a.593.593 0 100 1.188h.593a.594.594 0 000-1.188zm5.344 0h-3.563a.593.593 0 100 1.188h3.563a.593.593 0 100-1.188z" fill="#fff"/></svg>