<svg width="54" height="54" fill="none" xmlns="http://www.w3.org/2000/svg"><path fill="#0B4696" d="M0 0h54v54H0z"/><g clip-path="url(#clip0)" fill="#fff"><path d="M41.509 27.956a9.67 9.67 0 00-3.95-3.496.742.742 0 10-.644 1.338 8.213 8.213 0 014.632 7.362 8.18 8.18 0 01-.951 3.83.742.742 0 101.31.696 9.669 9.669 0 001.126-4.526 9.616 9.616 0 00-1.523-5.204zM31 34.404h1.06v.556H31v1.233h1.06v1.32h1.432v-1.32h1.431V34.96h-1.431v-.556h.654c1.974 0 3.146-.987 3.146-2.714 0-1.752-1.184-2.69-3.146-2.69H32.06v4.17H31v1.234zm2.492-1.234v-2.924h.518c1.308 0 1.851.518 1.851 1.444 0 .975-.543 1.48-1.85 1.48h-.52zm1.054-9.658h-.05a.742.742 0 000 1.484h.047a.742.742 0 00.003-1.484zm-4.694 17.011a8.213 8.213 0 01-4.632-7.363c0-1.335.33-2.659.952-3.829a.742.742 0 10-1.31-.697 9.667 9.667 0 00.397 9.73 9.671 9.671 0 003.95 3.497.74.74 0 00.99-.348.742.742 0 00-.347-.99zm2.418.801h-.043a.741.741 0 10-.007 1.485h.05a.742.742 0 000-1.485z"/><path d="M36.753 21c-.09-.215-.2-.417-.33-.605h1.933a3.418 3.418 0 003.414-3.415 3.418 3.418 0 00-3.414-3.414h-5.944c.378-.549.6-1.214.6-1.93a3.418 3.418 0 00-3.414-3.413H11.415A3.418 3.418 0 008 11.637a3.418 3.418 0 003.415 3.414h5.943a3.397 3.397 0 000 3.86h-1.936a3.418 3.418 0 00-3.414 3.413c0 1.081.506 2.046 1.293 2.672a3.408 3.408 0 000 5.344 3.409 3.409 0 000 5.344 3.409 3.409 0 00-1.293 2.671 3.418 3.418 0 003.414 3.415h8.747a12.584 12.584 0 009.214 4.007C40.34 45.777 46 40.117 46 33.16c0-5.79-3.92-10.681-9.247-12.16zm1.603-5.95c1.064 0 1.93.866 1.93 1.93s-.866 1.93-1.93 1.93H20.172a1.932 1.932 0 01-1.93-1.93c0-1.064.866-1.93 1.93-1.93h18.184zm-26.942-1.484a1.932 1.932 0 01-1.93-1.93c0-1.063.867-1.929 1.93-1.929h18.184c1.064 0 1.93.866 1.93 1.93s-.866 1.93-1.93 1.93H11.415zm4.008 6.829h18.184c.299 0 .585.069.842.193a12.578 12.578 0 00-9.993 3.666h-9.033a1.932 1.932 0 01-1.93-1.93c0-1.064.866-1.93 1.93-1.93zm0 5.343h7.765a12.583 12.583 0 00-1.908 3.86h-5.857a1.932 1.932 0 01-1.93-1.93c0-1.064.866-1.93 1.93-1.93zm0 5.344h5.516a12.645 12.645 0 00-.046 3.86h-5.47a1.932 1.932 0 01-1.93-1.93c0-1.064.866-1.93 1.93-1.93zm0 9.203a1.932 1.932 0 01-1.93-1.93c0-1.064.866-1.93 1.93-1.93h5.773a12.568 12.568 0 001.781 3.86h-7.554zm17.961 4.008c-6.138 0-11.133-4.994-11.133-11.133 0-6.138 4.995-11.133 11.133-11.133 6.139 0 11.133 4.995 11.133 11.133 0 6.139-4.994 11.133-11.133 11.133z"/></g><defs><clipPath id="clip0"><path fill="#fff" transform="translate(8 8)" d="M0 0h38v38H0z"/></clipPath></defs></svg>