<svg width="73" height="71" fill="none" xmlns="http://www.w3.org/2000/svg"><path fill="#E40521" d="M2 0h71v71H2z"/><path fill="#0B4696" d="M0 0h71v71H0z"/><path d="M44.548 13.29c-4.989 0-9.049 4.06-9.049 9.049h1.646c0-4.083 3.32-7.404 7.403-7.404V13.29zm7.403 9.049c0 4.082-3.32 7.403-7.403 7.403v1.645c4.989 0 9.048-4.06 9.048-9.048h-1.645z" fill="#fff"/><path d="M56.886 22.339C56.886 15.535 51.352 10 44.548 10c-4.725 0-8.832 2.672-10.905 6.58H14.935a.822.822 0 00-.823.823v42.774c0 .456.368.823.823.823h36.193a.822.822 0 00.823-.823v-27.99c2.99-2.254 4.935-5.823 4.935-9.848zM34.7 29.742H19.048v-8.226H32.25c-.018.273-.042.545-.042.823 0 2.78.935 5.338 2.49 7.403zm15.606 29.613H15.758v-41.13h17.17c-.19.535-.355 1.08-.47 1.646H18.224a.822.822 0 00-.822.823v9.87a.82.82 0 00.822.823h17.962c2.202 2.035 5.133 3.29 8.36 3.29 2.08 0 4.038-.52 5.759-1.434v26.112zm-5.758-26.323c-5.896 0-10.694-4.797-10.694-10.693s4.798-10.694 10.694-10.694c5.896 0 10.693 4.797 10.693 10.694 0 5.896-4.797 10.693-10.693 10.693z" fill="#fff"/><path d="M23.16 34.677h-4.935a.822.822 0 00-.822.823v4.935a.82.82 0 00.822.823h4.936a.822.822 0 00.822-.823V35.5a.822.822 0 00-.822-.823zm-.822 4.936h-3.29v-3.29h3.29v3.29zm9.049-4.936H26.45a.822.822 0 00-.823.823v4.935c0 .456.368.823.823.823h4.936a.822.822 0 00.822-.823V35.5a.822.822 0 00-.823-.823zm-.823 4.936h-3.29v-3.29h3.29v3.29zm9.048-4.936h-4.935a.822.822 0 00-.823.823v4.935c0 .456.367.823.823.823h4.935a.822.822 0 00.823-.823V35.5a.822.822 0 00-.823-.823zm-.823 4.936H35.5v-3.29h3.29v3.29zm-15.629 3.29h-4.935a.822.822 0 00-.822.823v4.935c0 .455.367.823.822.823h4.936a.822.822 0 00.822-.823v-4.935a.822.822 0 00-.822-.823zm-.822 4.936h-3.29v-3.29h3.29v3.29zm9.049-4.936H26.45a.822.822 0 00-.823.823v4.935c0 .455.368.823.823.823h4.936a.822.822 0 00.822-.823v-4.935a.822.822 0 00-.823-.823zm-.823 4.936h-3.29v-3.29h3.29v3.29zm9.048-4.936h-4.935a.822.822 0 00-.823.823v4.935c0 .455.367.823.823.823h4.935a.822.822 0 00.823-.823v-4.935a.822.822 0 00-.823-.823zm-.823 4.936H35.5v-3.29h3.29v3.29zm3.291-4.113v13.161c0 .455.368.823.823.823h4.935a.822.822 0 00.823-.823V43.726a.822.822 0 00-.823-.823h-4.935a.822.822 0 00-.823.823zm1.645.822h3.29v11.517h-3.29V44.547zM23.16 51.129h-4.935a.822.822 0 00-.822.823v4.935c0 .455.367.823.822.823h4.936a.822.822 0 00.822-.823v-4.935a.822.822 0 00-.822-.823zm-.822 4.936h-3.29v-3.29h3.29v3.29zm9.049-4.936H26.45a.822.822 0 00-.823.823v4.935c0 .455.368.823.823.823h4.936a.822.822 0 00.822-.823v-4.935a.822.822 0 00-.823-.823zm-.823 4.936h-3.29v-3.29h3.29v3.29zm9.048-4.936h-4.935a.822.822 0 00-.823.823v4.935c0 .455.367.823.823.823h4.935a.822.822 0 00.823-.823v-4.935a.822.822 0 00-.823-.823zm-.823 4.936H35.5v-3.29h3.29v3.29zm2.468-32.209h1.062v.556h-1.062v1.233h1.062v1.32h1.43v-1.32h1.432v-1.233H43.75v-.556h.654c1.974 0 3.146-.987 3.146-2.714 0-1.752-1.184-2.69-3.146-2.69h-2.086v4.17h-1.06v1.234zm2.493-1.234v-2.924h.518c1.308 0 1.85.518 1.85 1.444 0 .975-.542 1.48-1.85 1.48h-.518z" fill="#fff"/></svg>