<svg width="73" height="71" fill="none" xmlns="http://www.w3.org/2000/svg"><path fill="#E40521" d="M2 0h71v71H2z"/><path fill="#0B4696" d="M0 0h71v71H0z"/><g clip-path="url(#clip0)" fill="#fff"><path d="M55.623 12.478H22.645c-2.863 0-5.191 2.306-5.191 5.133L17.24 46.65h-6.435c-.457 0-.805.403-.805.86v3.996c0 3.74 2.994 6.8 6.607 6.968v.048H44.38v-.054c.207.009.332.054.474.054h.02a6.981 6.981 0 006.94-7.017v-25.4h8.383c.457 0 .805-.413.805-.868v-7.333a5.417 5.417 0 00-5.378-5.426zM16.97 56.87h-.006c-2.938 0-5.311-2.428-5.311-5.365v-3.203h26.223v3.19a6.99 6.99 0 002.04 4.96c.14.14.286.212.435.419H16.97zm33.19-5.366c0 2.938-2.35 5.367-5.288 5.367h-.017a5.366 5.366 0 01-5.328-5.38V47.51a.856.856 0 00-.826-.86H18.893l.213-29.033c0-1.92 1.587-3.486 3.538-3.486h29.08c-.942 1.032-1.563 2.338-1.563 3.796v33.578zm9.19-33.586v6.535h-7.537v-6.529c0-2.067 1.72-3.794 3.786-3.794h.023a3.765 3.765 0 013.727 3.782v.006z"/><path d="M29.395 32.807l4.258 2.911a.813.813 0 00.923 0l4.245-2.91c1.475-1.006 2.564-3.11 2.564-4.894v-5.89a.808.808 0 00-.44-.742l-6.484-3.189a.811.811 0 00-.722 0l-6.47 3.18a.806.806 0 00-.44.742v5.9c0 1.783 1.091 3.887 2.566 4.892zM28.48 22.53l5.627-2.776 5.626 2.783v5.376c0 1.244-.815 2.827-1.844 3.528l-3.792 2.594-3.777-2.593c-1.029-.703-1.84-2.285-1.84-3.529V22.53z"/><path d="M32.71 29.161a.824.824 0 00.585.248h.002c.22 0 .43-.089.584-.244l3.285-3.287a.826.826 0 00-1.168-1.17l-2.698 2.7-1.08-1.09a.826.826 0 10-1.173 1.164l1.663 1.68zm11.67 8.919H24.556a.826.826 0 000 1.653H44.38a.826.826 0 000-1.652zm0 3.82H24.556a.826.826 0 000 1.653H44.38a.826.826 0 000-1.652z"/></g><defs><clipPath id="clip0"><path fill="#fff" transform="translate(10.001 10)" d="M0 0h51v51H0z"/></clipPath></defs></svg>