<svg width="73" height="71" fill="none" xmlns="http://www.w3.org/2000/svg"><path fill="#E40521" d="M2 0h71v71H2z"/><path fill="#0B4696" d="M0 0h71v71H0z"/><g clip-path="url(#clip0)" fill="#fff"><path d="M55.295 25.579l1.043-1.214 1.016.874a.752.752 0 001.06-.08l1.615-1.878a.752.752 0 00-.08-1.06l-5.553-4.774a.749.749 0 00-1.06.08l-1.615 1.877a.752.752 0 00.08 1.06l1.016.875-1.123 1.306a19.959 19.959 0 00-7.723-2.914v-2.272h2.59a2.195 2.195 0 002.192-2.193v-1.75a2.195 2.195 0 00-2.192-2.192h-11.3a2.195 2.195 0 00-2.191 2.193v1.75c0 1.208.983 2.192 2.192 2.192h2.59v2.272a19.964 19.964 0 00-7.86 3.002l-1.198-1.394 1.017-.874a.752.752 0 00.08-1.06l-1.615-1.879a.752.752 0 00-1.06-.08l-5.553 4.775a.752.752 0 00-.08 1.06l1.614 1.878a.75.75 0 001.06.08l1.017-.874 1.142 1.328a20.218 20.218 0 00-2.62 3.388.76.76 0 00-.077-.004h-4.75a.752.752 0 000 1.504h3.99a19.967 19.967 0 00-1.034 2.442h-7.598a.752.752 0 000 1.504h7.141a19.979 19.979 0 00-.56 3.219H10.752a.752.752 0 000 1.504h10.075c-.002.112-.004.224-.004.337 0 .978.071 1.94.207 2.881h-7.405a.752.752 0 000 1.504h7.681c.187.835.425 1.65.712 2.442h-3.75a.752.752 0 000 1.504h4.366c3.171 6.93 10.17 11.758 18.277 11.758 4.234 0 8.284-1.302 11.712-3.765a.752.752 0 10-.878-1.221 18.453 18.453 0 01-10.834 3.482c-10.247 0-18.584-8.337-18.584-18.585 0-10.247 8.337-18.584 18.584-18.584a18.52 18.52 0 0112.81 5.132l.022.02c3.543 3.387 5.753 8.156 5.753 13.432 0 4.97-1.937 9.641-5.455 13.153a.752.752 0 101.063 1.064A19.955 19.955 0 0061 39.587a20.019 20.019 0 00-5.705-14.008zm-1.31-6.502l4.413 3.794-.634.737-4.412-3.793.634-.738zm-.027 3.242l1.24 1.066-.993 1.155a20.24 20.24 0 00-1.267-1.034l1.02-1.187zm-16.372-6.364v-3.127H38.8v3.127h-1.214zm2.718-3.127h1.215v3.127h-1.215v-3.127zm2.719 3.127v-3.127h1.214v3.127h-1.214zm4.226-2.438v1.75a.69.69 0 01-.688.688h-.82v-3.127h.82c.38 0 .688.31.688.689zm-12.675 1.75v-1.75a.69.69 0 01.688-.689h.82v3.127h-.82a.689.689 0 01-.688-.689zm-10.727 8.341l-.634-.737 4.413-3.794.634.738-1.016.873-2.38 2.047-1.017.873zm2.59-.242l1.217-1.047 1.104 1.284a20.2 20.2 0 00-1.26 1.043l-1.084-1.261.023-.02zm12.919-3.808v-2.1h3.11v2.1a20.273 20.273 0 00-3.11 0z"/><path d="M34.614 25.886a.752.752 0 00-1.015-.318 15.837 15.837 0 00-8.365 11.976c-1.127 8.645 4.99 16.595 13.635 17.72.69.091 1.375.135 2.054.135 7.816-.001 14.63-5.815 15.667-13.769a15.706 15.706 0 00-3.148-11.684 15.708 15.708 0 00-10.487-6.037 15.723 15.723 0 00-6.057.381.752.752 0 00.382 1.455 14.17 14.17 0 012.88-.447v1.976a.752.752 0 101.504 0V25.3c.365.02.73.053 1.096.1a14.202 14.202 0 017.748 3.572l-1.362 1.362a.752.752 0 101.064 1.064l1.358-1.358c.236.264.464.539.682.823a14.202 14.202 0 012.952 7.99h-1.865a.752.752 0 100 1.504h1.861a14.225 14.225 0 01-3.634 8.77l-1.288-1.287a.752.752 0 10-1.063 1.063l1.29 1.29a14.311 14.311 0 01-8.745 3.675V52.03a.752.752 0 10-1.504 0v1.848a14.225 14.225 0 01-8.815-3.576l1.332-1.333a.752.752 0 10-1.064-1.063l-1.34 1.34a14.314 14.314 0 01-3.736-8.795h1.95a.752.752 0 000-1.504H26.62a14.315 14.315 0 013.62-8.884l1.401 1.401a.75.75 0 001.064 0 .752.752 0 000-1.063l-1.406-1.406c.896-.814 1.9-1.521 2.996-2.094a.752.752 0 00.319-1.015z"/><path d="M40.912 32.689a.752.752 0 00-.752.752v4.467a1.843 1.843 0 00-1.09 1.68 1.843 1.843 0 002.62 1.666l5.017 5.017a.75.75 0 001.064 0 .752.752 0 000-1.064l-5.095-5.095a1.835 1.835 0 00-1.012-2.204V33.44a.752.752 0 00-.752-.752zm-.338 6.898a.338.338 0 11.676 0 .338.338 0 01-.676 0z"/></g><defs><clipPath id="clip0"><path fill="#fff" transform="translate(10 10)" d="M0 0h51v51H0z"/></clipPath></defs></svg>