<svg width="73" height="71" fill="none" xmlns="http://www.w3.org/2000/svg"><path fill="#E40521" d="M2 0h71v71H2z"/><path fill="#0B4696" d="M0 0h71v71H0z"/><path d="M50.288 35.74a.68.68 0 00-1.222.596 13.654 13.654 0 011.352 6.738C50.04 49.896 44.4 55.52 37.576 55.88c-3.777.197-7.362-1.12-10.096-3.714a13.478 13.478 0 01-4.24-9.867c0-3.263 1.138-6.334 3.19-8.76-.664 2.847-.48 5.908-.47 6.083a.679.679 0 00.791.628c.19-.032 4.649-.86 4.649-8.151 0-2.751.228-5.174.496-7.068a1.568 1.568 0 001.963.478 1.58 1.58 0 00.85-1.597c-.62-5.264 1.289-7.453 2.577-8.315-.113 2.044.948 4.334 3.043 8 1.33 2.326 2.167 5.539 2.668 7.458.462 1.774.58 2.25 1.283 2.16.72-.091.72-.74.72-2.476 0-2.04.298-3.46.648-4.423.2 2.46 1.028 4.912 1.793 6.727a.68.68 0 101.253-.528c-.957-2.272-2.023-5.59-1.66-8.492a.68.68 0 00-1.052-.65c-.207.138-1.798 1.32-2.233 5.257-.522-1.816-1.245-3.968-2.24-5.708-2.659-4.654-3.256-6.513-2.665-8.288a.681.681 0 00-.803-.877c-.061.015-1.516.376-2.808 1.876-1.152 1.335-2.412 3.883-1.874 8.438.01.096-.032.184-.108.222a.198.198 0 01-.163.008.218.218 0 01-.125-.127 5.735 5.735 0 01-.224-3.47.68.68 0 00-1.313-.352c-.057.198-1.387 4.93-1.387 11.747 0 4.333-1.712 5.935-2.747 6.508-.01-1.681.135-5.24 1.438-7.278a.682.682 0 00-.988-.906c-3.726 2.857-5.863 7.186-5.863 11.876 0 4.146 1.657 8 4.665 10.855A14.824 14.824 0 0036.83 57.26c.272 0 .545-.007.818-.021 7.507-.395 13.712-6.584 14.128-14.09a15.02 15.02 0 00-1.488-7.41z" fill="#fff"/><path d="M32.257 39.164a.681.681 0 00-.874-.039 8.915 8.915 0 00-3.515 7.123c0 2.486.994 4.798 2.797 6.51a8.891 8.891 0 006.659 2.449c4.502-.238 8.223-3.949 8.473-8.45a9.006 9.006 0 00-.893-4.444.68.68 0 10-1.222.597 7.65 7.65 0 01.757 3.772c-.212 3.817-3.368 6.965-7.187 7.167a7.563 7.563 0 01-5.65-2.078 7.544 7.544 0 01-2.374-5.523c0-1.412.38-2.76 1.084-3.926a14.825 14.825 0 00-.074 2.39.68.68 0 00.79.627c.12-.02 2.938-.54 2.938-5.014 0-2.261 1.57-5.439 2.796-7.574.089 1.27.354 2.75.782 4.29.141.507 1.437 4.954 3.217 4.7 1.101-.151 1.101-1.697 1.101-2.205 0-.383.019-.726.05-1.032.214.92.525 1.78.82 2.48a.68.68 0 101.253-.528c-.542-1.287-1.146-3.162-.944-4.784a.68.68 0 00-1.051-.65c-.153.101-1.488 1.09-1.488 4.514 0 .3-.02.513-.043.66-.406-.46-1.084-1.646-1.605-3.518-.853-3.067-.906-5.426-.58-6.403a.68.68 0 00-1.206-.6c-.182.265-4.462 6.538-4.462 10.65 0 1.81-.534 2.738-1.02 3.207.038-1.108.219-2.616.784-3.501a.68.68 0 00-.113-.867zm15.158 8.504a.68.68 0 00.912-.304c2.142-4.283.776-8.502.717-8.68a.679.679 0 10-1.29.431c.012.038 1.249 3.857-.643 7.64a.68.68 0 00.304.913z" fill="#fff"/></svg>