<svg width="73" height="71" fill="none" xmlns="http://www.w3.org/2000/svg"><path fill="#E40521" d="M2 0h71v71H2z"/><path fill="#0B4696" d="M0 0h71v71H0z"/><path d="M46.684 51.199a.598.598 0 00.597-.598v-.599a.598.598 0 10-1.195 0v.6a.598.598 0 00.598.597z" fill="#fff"/><path d="M31.925 16.089a11.373 11.373 0 00-2.181 6.216h-.738a.598.598 0 00-.598.598v2.538a.598.598 0 00.598.598h1.211l.071 1.028a2.256 2.256 0 00-1.453 1.607 2.834 2.834 0 001.775 3.334 9.38 9.38 0 004.836 7.758v2.157l-.82.35a40.503 40.503 0 01-6.78-4.112.597.597 0 00-.717 0 40.49 40.49 0 01-8.286 4.798l-.056.024a.596.596 0 00-.361.549v6.132c0 3.187 1.522 5.986 4.403 8.095a15.514 15.514 0 004.344 2.221.598.598 0 00.33.002 16.271 16.271 0 004.488-2.217 12.98 12.98 0 001.657-1.385h18.328a.598.598 0 00.598-.597v-7.336l-.002-.05a5.308 5.308 0 00-2.899-4.28c-.01-.006-.022-.01-.033-.016l-5.103-2.178V39.74a9.38 9.38 0 004.79-7.735 2.834 2.834 0 001.77-3.332 2.257 2.257 0 00-1.447-1.604l.071-1.031h1.256a.598.598 0 00.598-.598v-2.538a.598.598 0 00-.598-.598h-.737a11.34 11.34 0 00-2.183-6.226 10.306 10.306 0 00-5.056-3.686l.077-.738a.596.596 0 00-.594-.659h-4.985a.598.598 0 00-.594.66l.076.737a10.3 10.3 0 00-5.056 3.696zm14.357 31.718v-3.84l.802.343v3.497h-.802zm1.8 1.195v6.183h-13.39a9.05 9.05 0 001.857-5.522v-.661h11.534zm-16.754 7.767a15.577 15.577 0 01-3.985 2.01 14.741 14.741 0 01-3.808-1.985c-2.597-1.901-3.914-4.3-3.914-7.13v-5.74a41.686 41.686 0 007.866-4.541 41.704 41.704 0 007.867 4.54v5.74c0 2.817-1.355 5.207-4.026 7.106zm20.05-8.297v6.713h-2.1v-6.78a.598.598 0 00-.598-.598h-.4V44.82l.875.373a4.106 4.106 0 012.223 3.28zm-6.292-5.015v4.35H36.55V43.53a.596.596 0 00-.136-.377 9.58 9.58 0 007.559-.173l1.114.476zm-1.744-1.503a8.383 8.383 0 01-6.7 0V40.32a9.373 9.373 0 006.7-.017v1.65zm6.595-12.995a1.638 1.638 0 01-1.3 2 .598.598 0 00-.494.589v.014a8.174 8.174 0 11-16.348 0v-.013a.597.597 0 00-.495-.589 1.636 1.636 0 01-1.305-2.001 1.046 1.046 0 01.63-.74c.112.133.25.243.405.324l1.051.54a.78.78 0 001.13-.63l.193-2.414h12.86c.096.42.212.836.348 1.243l.53 1.588a.774.774 0 00.738.532.774.774 0 00.53-.209l.738-.69c.083-.077.156-.163.219-.257a1.046 1.046 0 01.57.713zm-18.521-2.92h.79l-.136 1.693-.493-.253a.128.128 0 01-.07-.104l-.091-1.336zm17.012 1.39a.3.3 0 01-.095.2l-.264.246-.323-.971a12.558 12.558 0 01-.253-.865h1.03l-.095 1.39zm1.952-2.585h-3.372a.595.595 0 00-.55 0H29.602V23.5H50.38v1.344zm-12.6-11.44a.598.598 0 00.442-.64l-.06-.573h3.659l-.06.573a.597.597 0 00.44.64c.458.121.903.282 1.333.479v.934a5.37 5.37 0 01-3.438 5.01 5.355 5.355 0 01-3.648-5.086v-.857a8.38 8.38 0 011.333-.48zm-2.527 1.144v.193a6.548 6.548 0 004.533 6.242l.136.044c.124.04.257.04.38-.003a6.566 6.566 0 004.428-6.207v-.271a9.362 9.362 0 012.367 2.245 10.132 10.132 0 011.946 5.514H30.941c.096-1.986.772-3.9 1.945-5.506a9.37 9.37 0 012.367-2.251z" fill="#fff"/><path d="M30.748 46.385l-4.357 3.991-2.13-2.309a.598.598 0 00-.878.81l2.533 2.747a.598.598 0 00.843.036l4.797-4.393a.599.599 0 00-.608-1.003.6.6 0 00-.2.121z" fill="#fff"/></svg>