<svg width="73" height="71" fill="none" xmlns="http://www.w3.org/2000/svg"><path fill="#E40521" d="M2 0h71v71H2z"/><path fill="#0B4696" d="M0 0h71v71H0z"/><g clip-path="url(#clip0)" fill="#fff"><path d="M48.456 35.72l2.748-2.75-5.816-5.816-2.75 2.748a14.656 14.656 0 00-3.026-1.247v-3.813c2.657-1.43 4.113-3.777 4.113-6.66a8.238 8.238 0 00-5.483-7.75l-1.097-.388v6.722l-1.645.548-1.645-.548v-6.722l-1.097.389a8.238 8.238 0 00-5.484 7.748c0 2.883 1.456 5.231 4.113 6.66v3.814a14.697 14.697 0 00-3.026 1.247l-2.75-2.748-5.816 5.817 2.749 2.749c-.53.96-.951 1.973-1.255 3.026h-3.886v8.226h3.886a14.675 14.675 0 001.255 3.026l-2.749 2.75 5.817 5.816 2.749-2.749c.96.53 1.973.951 3.026 1.255v3.886h8.226V57.07a14.675 14.675 0 003.026-1.255l2.75 2.748 5.816-5.816-2.748-2.749c.53-.96.95-1.973 1.254-3.026h3.886v-8.226H49.71a14.634 14.634 0 00-1.255-3.026zM28.919 18.18a6.59 6.59 0 013.29-5.691v5.462l3.291 1.096 3.29-1.096V12.49a6.59 6.59 0 013.29 5.691c0 2.413-1.259 4.284-3.642 5.412l-.47.223v13.285h1.645v-1.37a8.171 8.171 0 014.113 7.128c0 3.037-1.658 5.688-4.113 7.113V38.746h-1.645v11.96a8.219 8.219 0 01-4.936-.001V23.816l-.47-.223c-2.383-1.128-3.643-2.999-3.643-5.412zm23.033 27.146h-3.52l-.153.629a13.03 13.03 0 01-1.554 3.747l-.338.552 2.492 2.491-3.49 3.49-2.491-2.491-.553.338a13.039 13.039 0 01-3.747 1.554l-.63.153v3.52h-4.936v-3.52l-.629-.152a13.032 13.032 0 01-3.747-1.554l-.553-.338-2.49 2.491-3.49-3.49 2.491-2.49-.338-.553a13.04 13.04 0 01-1.554-3.747l-.153-.63h-3.52V40.39h3.52l.152-.63c.32-1.323.843-2.584 1.554-3.746l.338-.553-2.491-2.49 3.49-3.49 2.49 2.49.553-.337c.862-.528 1.777-.95 2.731-1.263v3.517a9.805 9.805 0 00-5.758 8.97c0 5.444 4.428 9.872 9.871 9.872 5.443 0 9.871-4.428 9.871-9.871a9.803 9.803 0 00-5.758-8.97v-3.518c.954.314 1.87.736 2.731 1.263l.553.338 2.49-2.492 3.49 3.49-2.49 2.491.337.553a13.041 13.041 0 011.554 3.747l.154.63h3.52v4.935zM31.387 35.73v14.24c-2.454-1.424-4.113-4.075-4.113-7.112a8.17 8.17 0 014.113-7.128z"/><path d="M13.29 50.413V20.65c0-.453.37-.822.823-.822h6.732a2.464 2.464 0 002.317 1.645 2.47 2.47 0 002.468-2.468 2.47 2.47 0 00-2.468-2.468c-1.071 0-1.976.69-2.317 1.645h-6.732a2.47 2.47 0 00-2.467 2.468v29.764A2.464 2.464 0 0010 52.73a2.47 2.47 0 002.468 2.468 2.47 2.47 0 002.468-2.468c0-1.071-.69-1.976-1.645-2.317zm9.872-32.232a.824.824 0 010 1.645.824.824 0 01-.823-.822c0-.453.37-.823.823-.823zM12.468 53.552a.824.824 0 01-.822-.822c0-.453.369-.823.822-.823a.824.824 0 010 1.645z"/><path d="M16.58 21.472h-1.644v1.645h1.645v-1.645zm0 3.29h-1.644v1.645h1.645v-1.645zm0 3.29h-1.644v1.646h1.645v-1.646zm42.775 22.361V20.65a2.47 2.47 0 00-2.467-2.468h-6.732a2.464 2.464 0 00-2.317-1.645 2.47 2.47 0 00-2.467 2.468 2.47 2.47 0 002.467 2.468c1.071 0 1.976-.69 2.317-1.645h6.732c.453 0 .822.369.822.822v29.764a2.465 2.465 0 00-1.645 2.317 2.47 2.47 0 002.468 2.468A2.47 2.47 0 0061 52.73c0-1.071-.69-1.976-1.645-2.317zM47.84 19.827a.824.824 0 01-.822-.823c0-.453.37-.823.822-.823a.824.824 0 010 1.645zm10.694 33.725a.824.824 0 01-.823-.822.824.824 0 011.645 0 .823.823 0 01-.822.822z"/><path d="M56.065 21.472h-1.646v1.645h1.646v-1.645zm0 3.29h-1.646v1.645h1.646v-1.645zm0 3.29h-1.646v1.646h1.646v-1.646zM36.322 47.794h-1.645v1.646h1.645v-1.646zm0-3.29h-1.645v1.645h1.645v-1.645zm0-3.29h-1.645v1.645h1.645v-1.645z"/></g><defs><clipPath id="clip0"><path fill="#fff" transform="translate(10 10)" d="M0 0h51v51H0z"/></clipPath></defs></svg>