<svg width="82" height="80" fill="none" xmlns="http://www.w3.org/2000/svg"><path fill="#E40521" d="M2.246 0h79.753v79.753H2.246z"/><path fill="#0B4696" d="M0 0h79.753v79.753H0z"/><path d="M63.58 34.046l-.002-.001-.004-.004-.001-.001-7.473-6.974V23.8a.747.747 0 10-1.495 0v17.667L42.242 53.005a2.561 2.561 0 01-3.485 0L26.394 41.467V19.694c0-.498.405-.904.903-.904h26.405c.498 0 .903.405.903.904v1.118a.747.747 0 101.495 0v-1.118a2.4 2.4 0 00-2.398-2.398h-8.07l-2.37-2.212a4.06 4.06 0 00-5.524 0l-2.37 2.212h-8.071a2.4 2.4 0 00-2.398 2.398v7.372l-7.472 6.973-.002.002-.004.004-.001.001a2.403 2.403 0 00-.773 1.762v25.144A4.053 4.053 0 0020.696 65h3.457a.747.747 0 100-1.494h-3.457a2.556 2.556 0 01-2.553-2.554V35.81l19.596 18.288a4.037 4.037 0 002.762 1.084 4.04 4.04 0 002.761-1.084L62.858 35.81v25.142a2.556 2.556 0 01-2.553 2.554H27.14a.747.747 0 100 1.494h33.163a4.053 4.053 0 004.048-4.048V35.81c0-.668-.282-1.31-.772-1.763zm-24.823-17.87a2.561 2.561 0 013.485 0l1.2 1.12h-5.885l1.2-1.12zM24.9 40.072l-5.873-5.481L24.9 29.11v10.962zm31.2-10.963l5.874 5.482-5.873 5.481V29.11z" fill="#fff"/><path d="M58.653 61.7a2.4 2.4 0 002.398-2.398 2.4 2.4 0 00-2.398-2.397h-6.601a2.4 2.4 0 00-2.398 2.397 2.4 2.4 0 002.398 2.398h6.601zm-7.504-2.398c0-.498.405-.903.903-.903h6.601a.904.904 0 010 1.806h-6.601a.904.904 0 01-.903-.903zm-10.65-22.444a2.4 2.4 0 00-2.397 2.397 2.4 2.4 0 002.397 2.398 2.4 2.4 0 002.397-2.398 2.4 2.4 0 00-2.397-2.397zm0 3.3a.904.904 0 010-1.806.904.904 0 010 1.807zm2.398-8.935a5.696 5.696 0 003.287-5.57 5.714 5.714 0 00-5.285-5.285 5.723 5.723 0 00-4.287 1.518 5.718 5.718 0 00-1.81 4.166 2.4 2.4 0 002.397 2.398 2.4 2.4 0 002.398-2.398.906.906 0 01.972-.9c.429.03.802.402.832.831a.908.908 0 01-.559.906 4.423 4.423 0 00-2.74 4.115v1.65A2.4 2.4 0 0040.5 35.05a2.4 2.4 0 002.397-2.397v-1.431zm-.8-1.28a1.132 1.132 0 00-.694 1.06v1.65a.904.904 0 01-1.806 0v-1.65c0-1.207.712-2.28 1.813-2.732a2.4 2.4 0 001.482-2.39c-.08-1.165-1.056-2.14-2.22-2.22a2.378 2.378 0 00-1.806.638 2.374 2.374 0 00-.764 1.754.904.904 0 01-1.806 0 4.22 4.22 0 011.336-3.074 4.225 4.225 0 013.165-1.12 4.204 4.204 0 011.3 8.084z" fill="#fff"/></svg>