<svg width="82" height="80" fill="none" xmlns="http://www.w3.org/2000/svg"><path fill="#E40521" d="M2.246 0h79.753v79.753H2.246z"/><path fill="#0B4696" d="M0 0h79.753v79.753H0z"/><path d="M37.536 28.575l-.494-5.921a.747.747 0 00-.744-.685h-.747v-.747a2.244 2.244 0 00-2.241-2.242 2.244 2.244 0 00-2.242 2.242v.747h-.747a.747.747 0 00-.743.672l-.598 5.977a.747.747 0 00.744.822h7.074a.747.747 0 00.738-.865zm-4.974-7.353a.748.748 0 011.495 0v.747h-1.495v-.747zm-2.013 6.723l.448-4.482h4.613l.374 4.482h-5.435z" fill="#fff"/><path d="M57.36 20.649l-.008-.054-.003-.019a.728.728 0 00-.016-.062l-.002-.008a.801.801 0 00-.022-.062l-.003-.007a.725.725 0 00-.026-.056l-.005-.01a.736.736 0 00-.03-.05l-.008-.013a.773.773 0 00-.033-.045l-.01-.014a.744.744 0 00-.05-.054L51.17 14.22a.768.768 0 00-.055-.05l-.015-.01a.722.722 0 00-.043-.033l-.015-.009a.732.732 0 00-.048-.028l-.011-.006a.725.725 0 00-.055-.026c-.003 0-.006-.002-.008-.003a.701.701 0 00-.06-.021l-.01-.003a.742.742 0 00-.062-.015c-.006-.002-.012-.002-.019-.003A.718.718 0 0050.64 14H23.747a.747.747 0 00-.747.747v45.17c0 .413.334.747.747.747h16.934a.747.747 0 000-1.494H24.494V15.494h25.4v5.23c0 .412.334.747.746.747h5.23v37.7h-4.232a.747.747 0 100 1.493h4.978a.747.747 0 00.747-.747V20.723a.737.737 0 00-.003-.074zm-5.973-.673v-3.425l3.426 3.425h-3.426z" fill="#fff"/><path d="M50.64 35.266H29.724a.747.747 0 000 1.494H50.64a.747.747 0 000-1.494zm0 3.985H29.724a.747.747 0 000 1.494H50.64a.747.747 0 000-1.494zm0 3.985H29.724a.747.747 0 000 1.494H50.64a.747.747 0 000-1.494zM38.688 47.22h-8.964a.747.747 0 000 1.494h8.964a.747.747 0 000-1.494zm12.701 7.222a5.235 5.235 0 00-5.23-5.23 5.235 5.235 0 00-5.23 5.23 5.22 5.22 0 001.993 4.102v5.709l.001.024.003.045c0 .01.002.021.004.032.002.014.003.027.006.04l.008.034.01.038.01.034.013.034.016.035.015.031.02.036.017.028.027.036.014.02.003.003a.75.75 0 00.053.06l.017.014a.751.751 0 00.042.038l.027.02a.771.771 0 00.107.065l.028.014a.7.7 0 00.047.019l.026.01a.65.65 0 00.053.014l.022.006.061.01.018.003a.893.893 0 00.074.004h.008a.752.752 0 00.107-.009l.022-.003a.725.725 0 00.104-.027l.018-.006a.74.74 0 00.104-.046l.004-.002a.725.725 0 00.098-.066l.007-.005 2.024-1.618 2.023 1.618.006.005a.756.756 0 00.1.066l.003.002a.737.737 0 00.104.046l.018.006c.033.012.068.02.103.027l.023.003c.035.005.07.009.107.009h.008c.025 0 .05-.002.074-.004.006 0 .011-.002.017-.003a.722.722 0 00.062-.01l.021-.006a.665.665 0 00.054-.015l.026-.01a.772.772 0 00.047-.018l.028-.014a.762.762 0 00.107-.065l.027-.02a.746.746 0 00.042-.037l.017-.016a.7.7 0 00.053-.059l.003-.003.014-.02c.01-.012.018-.024.027-.037l.016-.027.021-.036.015-.03.016-.036.012-.034.012-.035.01-.037.007-.033.006-.041.005-.032.002-.046.001-.023v-5.709a5.223 5.223 0 001.992-4.102zm-4.752 7.244l-.01-.008-.018-.013a.801.801 0 00-.04-.029l-.024-.015-.039-.022-.03-.014-.035-.016a.65.65 0 00-.037-.013l-.03-.01c-.014-.004-.027-.008-.04-.01l-.03-.008a.732.732 0 00-.04-.006l-.033-.004-.035-.003h-.069c-.014 0-.028.002-.041.003a.798.798 0 00-.142.028l-.027.009a.664.664 0 00-.04.015l-.032.014-.033.016a.771.771 0 00-.037.021l-.026.016-.04.029-.017.012-.01.008-1.266 1.013v-3.327a5.204 5.204 0 003.486 0v3.327l-1.265-1.013zm-.478-3.509a3.74 3.74 0 01-3.735-3.735 3.74 3.74 0 013.735-3.736 3.74 3.74 0 013.736 3.736 3.74 3.74 0 01-3.736 3.735z" fill="#fff"/><path d="M46.16 52.2a2.244 2.244 0 00-2.242 2.241 2.244 2.244 0 002.241 2.242A2.244 2.244 0 0048.4 54.44a2.244 2.244 0 00-2.24-2.24zm0 2.989a.748.748 0 110-1.496.748.748 0 010 1.496z" fill="#fff"/></svg>