<svg width="82" height="80" fill="none" xmlns="http://www.w3.org/2000/svg"><path fill="#E40521" d="M2.247 0H82v79.753H2.247z"/><path fill="#0B4696" d="M0 0h79.753v79.753H0z"/><g clip-path="url(#clip0)" fill="#fff"><path d="M68.052 35.736l-9.708-12.61a1.137 1.137 0 00-1.512-.266l-6.267 3.986H42.39c-.105 0-.21.023-.313.052l-6.337 1.825-6.577-1.799-6.39-4.064a1.137 1.137 0 00-1.495.245l-10.738 13.3a1.137 1.137 0 00.144 1.576l5.627 4.843 5.05 6.804a4.024 4.024 0 00.088 5.591 4.002 4.002 0 002.438 1.155 3.993 3.993 0 001.13 3.456 3.993 3.993 0 002.842 1.178l.043-.001-.002.081c0 1.074.418 2.083 1.177 2.843a3.995 3.995 0 003.47 1.128 3.999 3.999 0 001.156 2.447 4.005 4.005 0 002.841 1.175 4.01 4.01 0 002.843-1.175L40 66.89l.258.208a4.005 4.005 0 002.795 1.129 4.009 4.009 0 004.017-4.081 4.012 4.012 0 004.08-4.077 3.997 3.997 0 002.904-1.177c.8-.8 1.191-1.855 1.175-2.905a4.008 4.008 0 002.905-1.175 4.026 4.026 0 00.528-5.031l3.687-7.72 5.542-4.77a1.137 1.137 0 00.16-1.556zM22.409 25.324l4.595 2.922-9.996 12.178-4.005-3.448 9.406-11.652zm.648 25.82l1.387-1.387a1.741 1.741 0 011.079-.504l.03-.001a1.734 1.734 0 011.393.54c.642.68.608 1.79-.077 2.474l-1.345 1.345c-.68.68-1.787.68-2.467 0a1.747 1.747 0 010-2.467zm3.568 7.078a1.731 1.731 0 01-.51-1.233c0-.466.18-.904.51-1.234l2.69-2.69a1.763 1.763 0 011.983-.342c.678.324 1.06 1.06.96 1.802a1.84 1.84 0 01-.519 1.05l-2.646 2.647c-.33.33-.768.511-1.234.511-.466 0-.904-.181-1.234-.511zm4.06 4.1a1.731 1.731 0 01-.51-1.234c0-.465.18-.904.51-1.233l2.69-2.69a1.764 1.764 0 012.108-.276c.616.358.939 1.062.833 1.763a1.843 1.843 0 01-.517 1.023l-2.646 2.647c-.33.33-.768.51-1.234.51-.466 0-.904-.18-1.233-.51zm4.626 3.575a1.746 1.746 0 010-2.467l1.386-1.387a1.78 1.78 0 01.135-.12 1.738 1.738 0 01.94-.383l.06-.003c.042-.002.082-.005.123-.005a1.733 1.733 0 011.357.68c.523.683.453 1.698-.197 2.348l-1.337 1.338c-.68.68-1.787.68-2.467 0zm21.216-12.692c-.68.68-1.787.68-2.467 0a1.048 1.048 0 00-.078-.07l-7.313-7.39a1.137 1.137 0 00-1.617 1.6l7.392 7.47.003.002a1.747 1.747 0 01-1.234 2.979c-.466 0-.904-.182-1.233-.511l-4.945-4.997a1.137 1.137 0 10-1.617 1.6l4.87 4.92a.94.94 0 00.08.09c.68.68.68 1.786 0 2.467a1.75 1.75 0 01-2.469 0L43.2 58.636a1.137 1.137 0 10-1.616 1.6l2.623 2.65c.025.031.052.061.08.09.68.68.68 1.787 0 2.467-.68.68-1.786.68-2.467 0-.078-.078-.17-.139-.258-.206-.074-.056-.093-.096-.056-.186.037-.092.093-.174.131-.266.042-.103.075-.209.108-.315a4.1 4.1 0 00.148-1.75 4.002 4.002 0 00-1.7-2.768 3.993 3.993 0 00-1.691-.655c.293-1.293-.059-2.694-.974-3.66a3.99 3.99 0 00-2.985-1.258 4.015 4.015 0 00-1.075-2.842 3.99 3.99 0 00-2.865-1.257 4.092 4.092 0 00-.97.103 3.988 3.988 0 00-1.33-2.438 3.987 3.987 0 00-2.57-.975 4.028 4.028 0 00-2.746 1.033l-4.396-5.924 10.517-12.813 3.353.917-4.378 7.725a3.992 3.992 0 00-.377 3.053 3.991 3.991 0 002.083 2.526 3.994 3.994 0 002.863.276 3.994 3.994 0 002.425-1.892l2.844-5.02 5.08.36 13.526 13.525c.68.68.68 1.788 0 2.468zm.47-5.213L44.31 35.303a1.138 1.138 0 00-.723-.33l-6.22-.441c-.43-.03-.858.2-1.07.574l-3.198 5.645c-.23.405-.604.696-1.053.82-.449.125-.92.067-1.325-.163a1.733 1.733 0 01-.822-1.053 1.733 1.733 0 01.164-1.325l4.27-7.535 1.73-.498.034-.012 6.458-1.864h7.802l9.74 12.382-3.098 6.489zm4.59-8.274l-9.01-11.458 4.598-2.924 8.417 10.933-4.007 3.448z"/><path d="M45.426 24.71c.291 0 .582-.11.804-.333L54 16.61A1.137 1.137 0 1052.39 15l-7.768 7.769a1.137 1.137 0 00.804 1.942zm-13.08-.333a1.134 1.134 0 001.608 0 1.137 1.137 0 000-1.608L26.185 15a1.137 1.137 0 10-1.608 1.609l7.768 7.768zm6.942.333c.628 0 1.138-.509 1.138-1.137v-6.429a1.137 1.137 0 00-2.275 0v6.43c0 .627.51 1.137 1.137 1.137zm-1.049-11.688c.18.438.63.725 1.105.7a1.148 1.148 0 001.026-.787 1.146 1.146 0 00-.39-1.25 1.15 1.15 0 00-1.323-.043 1.145 1.145 0 00-.418 1.38z"/></g><defs><clipPath id="clip0"><path fill="#fff" transform="translate(10.288 11)" d="M0 0h58v58H0z"/></clipPath></defs></svg>