<svg width="82" height="80" fill="none" xmlns="http://www.w3.org/2000/svg"><path fill="#E40521" d="M2.247 0H82v79.753H2.247z"/><path fill="#0B4696" d="M0 0h79.753v79.753H0z"/><path d="M51.329 59.598a1.133 1.133 0 100 2.266 1.133 1.133 0 000-2.266zm-22.657 0a1.133 1.133 0 10.001 2.266 1.133 1.133 0 000-2.266z" fill="#fff"/><path d="M61.71 53.73a12.802 12.802 0 00-5.08-4.554 1.126 1.126 0 00-.643-.296 11.85 11.85 0 00-4.658-.95H47.93v-2.99a12.994 12.994 0 004.066-6.414h.465a4.536 4.536 0 004.532-4.53 4.514 4.514 0 00-1.204-3.072 3.376 3.376 0 001.203-2.593c0-1.491-.965-2.76-2.304-3.217-.4-5.209-4.056-9.66-9.09-11.055C45.3 12.502 44.014 11 42.266 11h-4.531c-1.748 0-3.034 1.502-3.332 3.06-5.034 1.395-8.69 5.845-9.09 11.054-.487.165-.934.44-1.31.815a3.391 3.391 0 00.209 4.995 4.513 4.513 0 00-1.204 3.072 4.536 4.536 0 004.532 4.531h.462a13.021 13.021 0 004.069 6.413v2.99h-3.399c-1.608 0-3.173.32-4.658.95-.247.027-.47.135-.643.296a12.801 12.801 0 00-5.08 4.555 12.88 12.88 0 00-2.08 7v7.136c0 .626.508 1.133 1.133 1.133h45.313c.625 0 1.133-.507 1.133-1.133V60.73a12.88 12.88 0 00-2.08-7zM23.008 66.735h-4.53v-6.003c0-3.446 1.764-6.749 4.53-8.71v14.713zm29.453-30.472h-.051c.034-.377.051-.755.051-1.133v-3.4a2.268 2.268 0 012.266 2.265 2.268 2.268 0 01-2.266 2.266zm-18.125-19.81v5.082a1.133 1.133 0 002.266 0v-6.797c0-.702.593-1.472 1.133-1.472h4.531c.54 0 1.133.77 1.133 1.472v6.797a1.133 1.133 0 002.266 0v-5.082a10.24 10.24 0 016.733 8.48H27.603a10.24 10.24 0 016.733-8.48zM27.54 36.262a2.268 2.268 0 01-2.266-2.266 2.268 2.268 0 012.266-2.266v3.399c0 .378.017.756.051 1.133h-.051zm0-6.797h-1.133a1.134 1.134 0 01-.801-1.934c.214-.214.498-.332.8-.332h27.188a1.134 1.134 0 01.801 1.934 1.125 1.125 0 01-.8.332H27.54zm2.471 7.724l-.007-.037a10.45 10.45 0 01-.199-2.023V31.73h20.39v3.398a10.453 10.453 0 01-.205 2.06 10.731 10.731 0 01-3.948 6.37c-1.772 1.377-3.861 2.105-6.041 2.105s-4.27-.728-6.044-2.106a10.742 10.742 0 01-3.946-6.37zm8.857 29.545h-9.063V64.13a1.133 1.133 0 00-2.265 0v2.605h-2.266v-15.92a9.59 9.59 0 012.266-.553v7.07a1.133 1.133 0 102.265 0v-7.137h2.913l6.15 6.457v10.082zM34.336 48.61V46.5c1.748.94 3.674 1.43 5.665 1.43 1.99 0 3.916-.49 5.664-1.43v2.11L40 54.557l-5.665-5.948zm20.391 18.125h-2.266V64.13a1.133 1.133 0 10-2.265 0v2.605h-9.063V56.652l6.15-6.457h2.913v7.137a1.133 1.133 0 102.265 0v-7.07c.773.091 1.53.276 2.266.553v15.92zm6.797 0h-4.531V52.022c2.766 1.96 4.53 5.263 4.53 8.709v6.003z" fill="#fff"/></svg>