<svg width="82" height="80" fill="none" xmlns="http://www.w3.org/2000/svg"><path fill="#E40521" d="M2.247 0H82v79.753H2.247z"/><path fill="#0B4696" d="M0 0h79.753v79.753H0z"/><path d="M60.131 29.843l2.386-2.386a.966.966 0 000-1.366l-5.46-5.46a.994.994 0 00-1.366 0l-2.39 2.382a24.975 24.975 0 00-13.045-4.258v-5.822h4.832a.966.966 0 000-1.933H33.492a.966.966 0 000 1.933h4.832v5.822a24.975 24.975 0 00-13.045 4.258l-2.386-2.386a.966.966 0 00-1.367 0l-5.46 5.46a.966.966 0 000 1.366l2.383 2.39c-7.749 11.51-4.7 27.123 6.81 34.872 11.511 7.748 27.124 4.7 34.872-6.811a25.124 25.124 0 000-28.061zm-3.757-7.166l4.094 4.093-1.496 1.496a25.385 25.385 0 00-4.093-4.093l1.495-1.496zM18.11 26.77l4.093-4.093 1.496 1.496a25.386 25.386 0 00-4.093 4.093L18.11 26.77zm21.18 40.276c-12.808 0-23.191-10.383-23.191-23.192 0-12.808 10.383-23.19 23.191-23.19s23.191 10.382 23.191 23.19c-.014 12.802-10.389 23.177-23.19 23.192z" fill="#fff"/><path d="M57.718 33.272c-.008-.017-.008-.034-.017-.05-.009-.017-.025-.025-.035-.04a21.414 21.414 0 00-7.707-7.708c-.016-.01-.024-.025-.04-.034-.015-.01-.033-.01-.05-.017a21.18 21.18 0 00-21.162 0c-.016.008-.034.008-.05.017-.017.008-.024.025-.04.034a21.413 21.413 0 00-7.707 7.708c-.01.015-.025.024-.035.04-.01.015-.009.033-.016.05a21.105 21.105 0 00-2.803 9.47.883.883 0 00-.025.146.814.814 0 00.023.108c-.012.285-.023.57-.023.858a21.12 21.12 0 002.832 10.58c.007.016.007.033.016.05.009.016.033.04.047.06a21.418 21.418 0 007.695 7.687c.016.01.024.025.04.035.015.01.049.018.073.03a21.181 21.181 0 0021.112 0c.024-.012.05-.017.073-.03.025-.014.025-.026.04-.035a21.418 21.418 0 007.69-7.686c.015-.022.035-.038.048-.061.014-.023.013-.034.02-.05a21.18 21.18 0 000-21.162zM56.473 52.66L54 51.23a.966.966 0 00-.978 1.667l.012.007 2.471 1.427a19.45 19.45 0 01-5.738 5.738l-1.427-2.472a.966.966 0 10-1.673.966l1.428 2.473a19.176 19.176 0 01-7.839 2.094v-4.78a.966.966 0 00-1.932 0v4.782a19.176 19.176 0 01-7.84-2.094l1.43-2.472a.966.966 0 10-1.675-.967l-1.427 2.472a19.453 19.453 0 01-5.738-5.738l2.472-1.427a.966.966 0 00-.955-1.68l-.011.006-2.473 1.429a19.19 19.19 0 01-2.143-8.805h4.831a.966.966 0 000-1.933H20.06c.244-2.4.938-4.73 2.046-6.872l2.473 1.428a.966.966 0 10.966-1.674l-2.472-1.427a19.452 19.452 0 015.738-5.738l1.427 2.472a.966.966 0 101.68-.956l-.006-.01-1.428-2.473a19.177 19.177 0 017.84-2.095v4.783a.966.966 0 001.932 0v-4.782a19.18 19.18 0 017.839 2.094l-1.428 2.472a.966.966 0 001.667.978l.006-.011 1.427-2.472a19.451 19.451 0 015.738 5.738l-2.471 1.427a.966.966 0 00.955 1.68l.011-.006 2.473-1.428a19.178 19.178 0 012.094 7.838h-5.749a.966.966 0 000 1.933h5.749a19.178 19.178 0 01-2.094 7.839z" fill="#fff"/><path d="M40.256 41.133v-7.908a.966.966 0 00-1.933 0v7.908a2.899 2.899 0 101.933 0zm-.967 3.688a.966.966 0 110-1.933.966.966 0 010 1.933z" fill="#fff"/></svg>